<?xml version="1.0" encoding="UTF-8"?>
<svg version="1.1" viewBox="0 0 1120 1120" width="1280" height="1880" xmlns="http://www.w3.org/2000/svg">
<path transform="translate(0)" d="m0 0h1120v1120h-1120z" fill="#100F11"/>
<path transform="translate(577,201)" d="m0 0h45l31 3 25 5 40 11 19 8 28 13 13 7 16 9 10 9 4 6 1 9-3 8-11 13-15 14-18 18-6 7-8 7-20 20-7 8-7 4-6 3h-9l-16-6-25-10-17-5-21-3h-41l-21 3-18 5-27 11-14 7-17 11-9 7-11 9-12 12-11 14-9 12-6 11-9 16-5 13-7 24-4 20-1 10v31l4 25 8 28 4 12 8 16 1 3v8l-3 7-9 11-8 8-5 4-8 10-7 6h-2l-2 4-5 6-11 9-11 12-3 1-2 4-9 10-11 7-5 2h-9l-6-3-5-5-6-8-8-14-15-27-14-36-5-16-9-41-3-22-2-26v-25l2-24 4-26 10-43 9-24 9-22 15-27 9-15 14-20 8-10 8-11 8-7 11-12 13-12 9-8 11-9 9-7 21-14 18-10 16-8 23-11 27-9 39-10 20-3z" fill="#83848E"/>
<path transform="translate(489,737)" d="m0 0h12l19 7 20 8 21 6 16 2 15 1h12l28-2 24-6 18-7 20-8 3-1h12l12 6 8 9 5 6 8 7 7 8 11 9 7 8 14 14 4 5 11 9 9 11 4 8v8l-4 8-9 9-20 11-19 10-33 15-24 7-26 7-21 4-18 2-16 1h-40l-26-2-19-3-32-8-21-6-15-6-26-12-12-6-16-9-15-10-5-8-1-4v-9l3-8 8-9 8-7 4-5h2l2-4 10-8 7-8 32-32 6-7 10-8z" fill="#F4F5F5"/>
<path transform="translate(587,447)" d="m0 0h25l16 3 13 5 19 9 13 10 4 5 8 7 8 11 9 16 6 13 3 15 1 13-1 25-4 17-10 21-7 10-6 8-8 7-5 6-15 10-21 9-13 4-14 2h-18l-18-3-18-7-16-8-11-9-14-14-12-16-9-22-5-21v-26l4-18 9-24 8-11 12-14 14-13 8-5 20-9 12-4z" fill="#F4F5F5"/>
<path transform="translate(620,203)" d="m0 0h15l18 1 25 5 22 6v2l3 1-8-1-22-5-28-5-3-1-22-2z" fill="#D8D9DB"/>
<path transform="translate(706,218)" d="m0 0 9 1 20 8 30 14 13 7v3l-21-11-25-11-24-8-2-1z" fill="#D2D3D6"/>
<path transform="translate(540,206)" d="m0 0h5l-2 2-18 3-24 6-7 1v-2l35-9z" fill="#BEBFC3"/>
<path transform="translate(741,231)" d="m0 0 5 1 29 14 4 3-1 2-21-11-16-7z" fill="#D1D2D5"/>
<path transform="translate(412,253)" d="m0 0 4 1-13 8-5 4-2-1 5-5z" fill="#CBCCCF"/>
<path transform="translate(741,231)" d="m0 0 5 1 15 7-4 1-16-7z" fill="#C2C3C7"/>
<path transform="translate(540,206)" d="m0 0h5l-2 2-12 2h-10l4-2z" fill="#CFD0D3"/>
<path transform="translate(386,270)" d="m0 0 4 1-9 7h-2l2-4z" fill="#CDCED1"/>
<path transform="translate(367,286)" d="m0 0 2 1-5 5-7 5 2-4z" fill="#C4C5C9"/>
<path transform="translate(501,214)" d="m0 0h8l-3 2-7 2h-5v-2z" fill="#C8C9CD"/>
<path transform="translate(467,225)" d="m0 0h6l-3 2-9 4h-2v-2z" fill="#C7C8CB"/>
</svg>
