<svg version="1.1" id="Layer_1" xmlns="http://www.w3.org/2000/svg" xmlns:xlink="http://www.w3.org/1999/xlink" x="0px" y="0px"
	 width="100%" viewBox="0 0 600 600" enable-background="new 0 0 600 600" xml:space="preserve">
<path fill="#F0DC4E" opacity="1.000000" stroke="none" 
	d="
M1.000000,475.000000 
	C1.000000,359.645782 1.000000,244.291550 1.325214,128.807007 
	C2.089322,128.013947 2.757016,127.406197 2.931626,126.679909 
	C4.630432,119.613838 5.831043,112.400368 7.957917,105.469589 
	C17.567249,74.155998 36.084621,48.875114 62.217358,29.565220 
	C80.883720,15.772347 101.924980,6.564939 125.121346,2.923127 
	C125.830719,2.811754 126.377449,1.664376 127.000000,1.000001 
	C129.370560,1.000000 131.741104,1.000000 134.862808,1.285043 
	C137.094223,1.712171 138.574463,1.978378 140.054749,1.978646 
	C247.297806,1.998098 354.540863,2.001129 461.783905,1.955034 
	C463.522736,1.954287 465.261322,1.332159 467.000000,1.000001 
	C469.041656,1.000000 471.083344,1.000000 473.224091,1.325182 
	C473.985901,2.089297 474.593597,2.757071 475.319885,2.931677 
	C482.385956,4.630444 489.599457,5.830953 496.530243,7.957818 
	C527.843933,17.567167 553.124878,36.084499 572.434814,62.217346 
	C586.227661,80.883736 595.434998,101.925034 599.076843,125.121368 
	C599.188171,125.830750 600.335632,126.377449 601.000000,127.000000 
	C601.000000,129.370560 601.000000,131.741104 600.728088,134.872498 
	C600.304443,137.111496 600.020264,138.589615 600.019958,140.067810 
	C599.999023,247.301437 599.995972,354.535065 600.042114,461.768677 
	C600.042908,463.512604 600.666870,465.256226 601.000000,467.000000 
	C601.000000,469.041656 601.000000,471.083344 600.674805,473.224121 
	C599.910706,473.985931 599.243042,474.593689 599.068420,475.319977 
	C597.369690,482.386047 596.169128,489.599518 594.042236,496.530304 
	C584.432861,527.843811 565.915466,553.124634 539.782837,572.434570 
	C521.116516,586.227539 500.075226,595.434875 476.878967,599.076904 
	C476.169464,599.188354 475.622650,600.335632 475.000000,601.000000 
	C472.629425,601.000000 470.258881,601.000000 467.108093,600.757324 
	C464.688721,600.343201 463.049561,600.021729 461.410339,600.021362 
	C354.526764,599.997681 247.643204,599.994812 140.759644,600.041565 
	C138.839630,600.042419 136.919876,600.666687 135.000000,601.000000 
	C132.958328,601.000000 130.916672,601.000000 128.775848,600.674805 
	C128.013916,599.910706 127.406151,599.243042 126.679832,599.068420 
	C119.613777,597.369629 112.400330,596.169006 105.469551,594.042114 
	C74.156021,584.432800 48.875187,565.915466 29.565277,539.782776 
	C15.772380,521.116394 6.565187,500.075134 2.923084,476.878906 
	C2.811692,476.169434 1.664362,475.622650 1.000000,475.000000 
M377.157837,371.279724 
	C381.710297,388.609589 391.575684,402.407349 406.086121,412.571259 
	C414.502350,418.466431 423.565918,423.566193 432.757019,428.191650 
	C442.859070,433.275543 453.563934,437.148895 463.775330,442.032288 
	C471.409088,445.683075 478.959534,449.667633 486.027740,454.296539 
	C493.096222,458.925598 496.685852,466.041443 496.936615,474.638123 
	C497.323425,487.897766 488.440460,498.555725 473.052979,501.842560 
	C447.615570,507.276093 426.278564,500.311615 410.114197,479.371246 
	C407.708466,476.254700 405.487488,472.995605 403.025696,469.587372 
	C387.658142,478.492371 372.625732,487.203186 357.660400,495.875092 
	C365.721375,512.895264 379.855621,528.526184 396.928070,537.750427 
	C431.927338,556.660339 468.594482,558.861328 505.601929,545.131226 
	C567.225220,522.268494 563.977112,442.708862 527.244507,414.926788 
	C515.774719,406.251801 503.101898,398.987030 490.380066,392.201111 
	C478.802795,386.025757 466.254761,381.697113 454.443634,375.922394 
	C448.233032,372.885834 442.105499,369.144409 436.972870,364.564301 
	C429.419617,357.824097 428.310852,348.619934 430.988373,339.221130 
	C433.619110,329.986633 440.463013,324.811127 449.624390,323.112793 
	C464.217072,320.407684 476.702423,324.316345 486.126007,336.232391 
	C488.579987,339.335449 490.731415,342.677795 493.236298,346.212921 
	C507.767578,336.877869 522.111023,327.663483 536.641174,318.329132 
	C523.561340,294.978119 505.121704,279.932831 479.055634,275.192810 
	C465.169189,272.667633 451.173615,272.261230 437.302063,275.065125 
	C406.514984,281.288147 384.837616,298.044403 376.562683,329.385712 
	C372.963684,343.016937 373.820618,356.807648 377.157837,371.279724 
M269.065796,550.639221 
	C299.966095,543.153320 318.455627,523.622803 324.533966,492.598846 
	C326.155853,484.320892 326.793304,475.729401 326.818848,467.278656 
	C327.005676,405.465698 326.923187,343.651917 326.913330,281.838409 
	C326.913055,280.226959 326.771667,278.615509 326.686768,276.805511 
	C307.919159,276.805511 289.527527,276.805511 270.696014,276.805511 
	C270.696014,279.126312 270.696045,281.100433 270.696045,283.074554 
	C270.695709,343.888397 270.789978,404.702576 270.569855,465.515625 
	C270.543671,472.750122 269.495117,480.159027 267.672913,487.162476 
	C265.545105,495.340485 259.435822,500.182556 251.110382,502.112030 
	C234.824371,505.886505 222.394089,501.336853 212.655609,487.732056 
	C209.677185,483.571167 207.073593,479.141968 204.040909,474.436157 
	C188.808823,483.658325 173.786301,492.753601 158.480621,502.020325 
	C169.256744,524.136841 185.122665,539.901672 208.075729,547.859558 
	C227.796829,554.696960 247.943604,554.831543 269.065796,550.639221 
z"/>
<path fill="#000000" opacity="1.000000" stroke="none" 
	d="
M126.531342,1.000001 
	C126.377449,1.664376 125.830719,2.811754 125.121346,2.923127 
	C101.924980,6.564939 80.883720,15.772347 62.217358,29.565220 
	C36.084621,48.875114 17.567249,74.155998 7.957917,105.469589 
	C5.831043,112.400368 4.630432,119.613838 2.931626,126.679909 
	C2.757016,127.406197 2.089322,128.013947 1.325214,128.338348 
	C1.000000,85.739983 1.000000,43.479961 1.000000,1.000000 
	C42.687302,1.000000 84.374992,1.000000 126.531342,1.000001 
z"/>
<path fill="#000000" opacity="1.000000" stroke="none" 
	d="
M601.000000,126.531342 
	C600.335632,126.377449 599.188171,125.830750 599.076843,125.121368 
	C595.434998,101.925034 586.227661,80.883736 572.434814,62.217346 
	C553.124878,36.084499 527.843933,17.567167 496.530243,7.957818 
	C489.599457,5.830953 482.385956,4.630444 475.319885,2.931677 
	C474.593597,2.757071 473.985901,2.089297 473.661591,1.325182 
	C516.260010,1.000000 558.520020,1.000000 601.000000,1.000000 
	C601.000000,42.687302 601.000000,84.374992 601.000000,126.531342 
z"/>
<path fill="#000000" opacity="1.000000" stroke="none" 
	d="
M475.468658,601.000000 
	C475.622650,600.335632 476.169464,599.188354 476.878967,599.076904 
	C500.075226,595.434875 521.116516,586.227539 539.782837,572.434570 
	C565.915466,553.124634 584.432861,527.843811 594.042236,496.530304 
	C596.169128,489.599518 597.369690,482.386047 599.068420,475.319977 
	C599.243042,474.593689 599.910706,473.985931 600.674805,473.661621 
	C601.000000,516.260010 601.000000,558.520020 601.000000,601.000000 
	C559.312683,601.000000 517.625000,601.000000 475.468658,601.000000 
z"/>
<path fill="#000000" opacity="1.000000" stroke="none" 
	d="
M1.000000,475.468658 
	C1.664362,475.622650 2.811692,476.169434 2.923084,476.878906 
	C6.565187,500.075134 15.772380,521.116394 29.565277,539.782776 
	C48.875187,565.915466 74.156021,584.432800 105.469551,594.042114 
	C112.400330,596.169006 119.613777,597.369629 126.679832,599.068420 
	C127.406151,599.243042 128.013916,599.910706 128.338348,600.674805 
	C85.739983,601.000000 43.479965,601.000000 1.000000,601.000000 
	C1.000000,559.312683 1.000000,517.625000 1.000000,475.468658 
z"/>
<path fill="#F8EFAC" opacity="1.000000" stroke="none" 
	d="
M466.531342,1.000001 
	C465.261322,1.332159 463.522736,1.954287 461.783905,1.955034 
	C354.540863,2.001129 247.297806,1.998098 140.054749,1.978646 
	C138.574463,1.978378 137.094223,1.712171 135.306976,1.285043 
	C245.354233,1.000000 355.708466,1.000000 466.531342,1.000001 
z"/>
<path fill="#F6EC9D" opacity="1.000000" stroke="none" 
	d="
M601.000000,466.531342 
	C600.666870,465.256226 600.042908,463.512604 600.042114,461.768677 
	C599.995972,354.535065 599.999023,247.301437 600.019958,140.067810 
	C600.020264,138.589615 600.304443,137.111496 600.728088,135.316681 
	C601.000000,245.354233 601.000000,355.708466 601.000000,466.531342 
z"/>
<path fill="#F2E064" opacity="1.000000" stroke="none" 
	d="
M135.468658,601.000000 
	C136.919876,600.666687 138.839630,600.042419 140.759644,600.041565 
	C247.643204,599.994812 354.526764,599.997681 461.410339,600.021362 
	C463.049561,600.021729 464.688721,600.343201 466.663940,600.757324 
	C356.645782,601.000000 246.291550,601.000000 135.468658,601.000000 
z"/>
<path fill="#2F312C" opacity="1.000000" stroke="none" 
	d="
M377.069153,370.877136 
	C373.820618,356.807648 372.963684,343.016937 376.562683,329.385712 
	C384.837616,298.044403 406.514984,281.288147 437.302063,275.065125 
	C451.173615,272.261230 465.169189,272.667633 479.055634,275.192810 
	C505.121704,279.932831 523.561340,294.978119 536.641174,318.329132 
	C522.111023,327.663483 507.767578,336.877869 493.236298,346.212921 
	C490.731415,342.677795 488.579987,339.335449 486.126007,336.232391 
	C476.702423,324.316345 464.217072,320.407684 449.624390,323.112793 
	C440.463013,324.811127 433.619110,329.986633 430.988373,339.221130 
	C428.310852,348.619934 429.419617,357.824097 436.972870,364.564301 
	C442.105499,369.144409 448.233032,372.885834 454.443634,375.922394 
	C466.254761,381.697113 478.802795,386.025757 490.380066,392.201111 
	C503.101898,398.987030 515.774719,406.251801 527.244507,414.926788 
	C563.977112,442.708862 567.225220,522.268494 505.601929,545.131226 
	C468.594482,558.861328 431.927338,556.660339 396.928070,537.750427 
	C379.855621,528.526184 365.721375,512.895264 357.660400,495.875092 
	C372.625732,487.203186 387.658142,478.492371 403.025696,469.587372 
	C405.487488,472.995605 407.708466,476.254700 410.114197,479.371246 
	C426.278564,500.311615 447.615570,507.276093 473.052979,501.842560 
	C488.440460,498.555725 497.323425,487.897766 496.936615,474.638123 
	C496.685852,466.041443 493.096222,458.925598 486.027740,454.296539 
	C478.959534,449.667633 471.409088,445.683075 463.775330,442.032288 
	C453.563934,437.148895 442.859070,433.275543 432.757019,428.191650 
	C423.565918,423.566193 414.502350,418.466431 406.086121,412.571259 
	C391.575684,402.407349 381.710297,388.609589 377.069153,370.877136 
z"/>
<path fill="#2F312C" opacity="1.000000" stroke="none" 
	d="
M268.656677,550.731445 
	C247.943604,554.831543 227.796829,554.696960 208.075729,547.859558 
	C185.122665,539.901672 169.256744,524.136841 158.480621,502.020325 
	C173.786301,492.753601 188.808823,483.658325 204.040909,474.436157 
	C207.073593,479.141968 209.677185,483.571167 212.655609,487.732056 
	C222.394089,501.336853 234.824371,505.886505 251.110382,502.112030 
	C259.435822,500.182556 265.545105,495.340485 267.672913,487.162476 
	C269.495117,480.159027 270.543671,472.750122 270.569855,465.515625 
	C270.789978,404.702576 270.695709,343.888397 270.696045,283.074554 
	C270.696045,281.100433 270.696014,279.126312 270.696014,276.805511 
	C289.527527,276.805511 307.919159,276.805511 326.686768,276.805511 
	C326.771667,278.615509 326.913055,280.226959 326.913330,281.838409 
	C326.923187,343.651917 327.005676,405.465698 326.818848,467.278656 
	C326.793304,475.729401 326.155853,484.320892 324.533966,492.598846 
	C318.455627,523.622803 299.966095,543.153320 268.656677,550.731445 
z"/>
</svg>