<?xml version="1.0" encoding="UTF-8"?>
<svg version="1.1" viewBox="0 0 1600 1600" width="1280" height="1280" xmlns="http://www.w3.org/2000/svg">
<path transform="translate(0)" d="m0 0h1600v1600h-1600z"/>
<path transform="translate(731,292)" d="m0 0h34l26 3 23 5 20 6 22 9 23 12 18 12 14 11 20 18 7 8 22-3 25-2h15l25 2 23 4 22 6 22 8 23 11 18 11 14 10 11 9 10 9 17 17 9 11 13 18 11 19 8 16 8 19 8 26 5 26 2 20v29l-3 27-5 23-4 16 11 13 12 17 9 15 11 21 10 26 7 26 4 25 1 12v33l-3 26-6 27-7 21-10 23-9 17-14 21-10 13-11 12-9 10-10 9-15 12-15 10-21 12-20 9-30 10-13 3-11 28-12 23-14 21-11 14-12 13-15 15-14 11-15 11-21 12-21 10-22 8-28 7-21 3-11 1h-34l-26-3-23-5-20-6-22-9-23-12-18-12-14-11-11-10-8-7-8-9-22 3-25 2h-15l-25-2-23-4-22-6-22-8-23-11-18-11-14-10-11-9-10-9-17-17-9-11-13-18-11-19-8-16-8-19-8-26-5-26-2-20v-29l3-27 5-23 4-16-11-13-12-17-9-15-11-21-10-26-7-26-4-25-1-12v-33l3-26 6-27 7-21 10-23 9-17 14-21 10-13 11-12 9-10 10-9 15-12 15-10 21-12 20-9 30-10 13-3 11-28 12-23 14-21 11-14 12-13 15-15 14-11 15-11 21-12 21-10 22-8 28-7 21-3z" fill="#FEFEFE"/>
<path transform="translate(747,358)" d="m0 0 20 1 20 3 25 7 21 9 16 9 17 12 3 4-24 14-182 105-8 6-5 6-4 10-1 292-6-2-26-15-24-14-28-16-3-2v-258l4-24 7-23 8-18 10-18 14-19 14-15 12-11 15-11 15-9 21-10 22-7 20-4 8-1z"/>
<path transform="translate(909,918)" d="m0 0h2v99l-3 3-28 16-78 45-24 14-52 30-28 16-17 8-21 7-19 4-17 2h-27l-23-3-23-6-18-7-16-8-15-9-14-11-10-9-12-12-13-17-12-20-7-15-7-20-4-16-3-21v-33l2-15 6 2 24 14 28 16 24 14 130 75 6 2h15l10-4 24-14 52-30 24-14 28-16 24-14 78-45z"/>
<path transform="translate(957,764)" d="m0 0 6 2 26 15 24 14 28 16 3 2v258l-4 24-7 23-9 20-9 16-14 19-14 15-12 11-18 13-18 10-18 8-23 7-24 4-21 1-26-2-20-4-17-5-21-9-16-9-17-12-3-4 24-14 182-105 8-6 5-6 4-10z"/>
<path transform="translate(978,438)" d="m0 0h27l23 3 23 6 18 7 16 8 15 9 14 11 12 11 10 10 13 17 12 20 7 15 7 20 4 16 3 21v33l-2 15-6-2-24-14-28-16-24-14-130-75-6-2h-15l-10 4-24 14-52 30-24 14-28 16-24 14-78 45-14 8h-2v-99l3-3 28-16 78-45 24-14 52-30 28-16 17-8 21-7 19-4z"/>
<path transform="translate(490,542)" d="m0 0h1l1 246 4 11 6 8 13 8 182 105 24 14 28 16 5 4-9 6-18 10-24 14-26 15-10 5-20-11-24-14-104-60-24-14-28-16-18-11-14-11-10-9-12-12-13-17-8-13-9-17-8-21-6-25-2-15v-35l3-21 6-22 8-20 10-19 12-17 11-13 15-15 17-13 15-9 16-8z"/>
<path transform="translate(934,596)" d="m0 0 14 7 24 14 156 90 22 13 12 9 13 11 14 14 13 17 8 13 9 17 8 21 6 25 2 15v35l-3 21-6 22-8 20-10 19-12 17-11 13-15 15-17 13-15 9-16 8-11 4-1-246-4-11-6-8-13-8-182-105-24-14-26-15-7-4 4-4 23-13 24-14 26-15z"/>
<path transform="translate(800,673)" d="m0 0 5 2 23 13 24 14 52 30 7 4v128l-28 16-78 45-5 2-24-14-78-45-7-4v-128l28-16 78-45z"/>
</svg>
