<svg version="1.1" id="Layer_1" xmlns:x="ns_extend;" xmlns:i="ns_ai;" xmlns:graph="ns_graphs;" xmlns="http://www.w3.org/2000/svg" xmlns:xlink="http://www.w3.org/1999/xlink" x="0px" y="0px" viewBox="0 0 104.5 65" style="enable-background:new 0 0 104.5 65;" xml:space="preserve">
 <style type="text/css">
  .st0{clip-path:url(#SVGID_2_);}
	.st1{fill:url(#SVGID_3_);}
	.st2{fill:url(#SVGID_4_);}
	.st3{fill:url(#SVGID_5_);}
 </style>
 <metadata>
  <sfw xmlns="ns_sfw;">
   <slices>
   </slices>
   <sliceSourceBounds bottomLeftOrigin="true" height="65" width="104.5" x="156" y="321.1">
   </sliceSourceBounds>
  </sfw>
 </metadata>
 <g>
  <g>
   <g>
    <defs>
     <rect id="SVGID_1_" x="0" width="104.5" height="65">
     </rect>
    </defs>
    <clipPath id="SVGID_2_">
     <use href="#SVGID_1_" style="overflow:visible;">
     </use>
    </clipPath>
    <g class="st0">
     <linearGradient id="SVGID_3_" gradientUnits="userSpaceOnUse" x1="103.32" y1="957.3685" x2="154.5668" y2="935.257" gradientTransform="matrix(1 0 0 -1 -106 978.2415)">
      <stop offset="0" style="stop-color:#F213A4">
      </stop>
      <stop offset="0.1517" style="stop-color:#E011A7">
      </stop>
      <stop offset="0.4554" style="stop-color:#B20DAF">
      </stop>
      <stop offset="0.8789" style="stop-color:#6806BB">
      </stop>
      <stop offset="1" style="stop-color:#5204BF">
      </stop>
     </linearGradient>
     <path class="st1" d="M0.3,5.5C-0.8,2.8,1.2,0,4,0h17.6c1.7,0,3.1,1,3.7,2.5l14,35c0.4,0.9,0.4,2,0,3l-8.8,22
					c-1.3,3.4-6.1,3.4-7.5,0L0.3,5.5z">
     </path>
     <linearGradient id="SVGID_4_" gradientUnits="userSpaceOnUse" x1="137.0502" y1="956.1652" x2="184.813" y2="937.126" gradientTransform="matrix(1 0 0 -1 -106 978.2415)">
      <stop offset="0" style="stop-color:#F213A4">
      </stop>
      <stop offset="0.1517" style="stop-color:#E011A7">
      </stop>
      <stop offset="0.4554" style="stop-color:#B20DAF">
      </stop>
      <stop offset="0.8789" style="stop-color:#6806BB">
      </stop>
      <stop offset="1" style="stop-color:#5204BF">
      </stop>
     </linearGradient>
     <path class="st2" d="M34.3,5.4c-0.9-2.6,1-5.4,3.8-5.4h15.4c1.7,0,3.2,1.1,3.8,2.6l12.8,35c0.3,0.9,0.3,1.8,0,2.7l-7.7,21
					c-1.3,3.5-6.3,3.5-7.6,0L34.3,5.4z">
     </path>
     <linearGradient id="SVGID_5_" gradientUnits="userSpaceOnUse" x1="168.1026" y1="957.3685" x2="219.3493" y2="935.257" gradientTransform="matrix(1 0 0 -1 -106 978.2415)">
      <stop offset="0" style="stop-color:#F213A4">
      </stop>
      <stop offset="0.1517" style="stop-color:#E011A7">
      </stop>
      <stop offset="0.4554" style="stop-color:#B20DAF">
      </stop>
      <stop offset="0.8789" style="stop-color:#6806BB">
      </stop>
      <stop offset="1" style="stop-color:#5204BF">
      </stop>
     </linearGradient>
     <path class="st3" d="M65.1,5.5C64,2.8,66,0,68.8,0h17.6c1.7,0,3.1,1,3.7,2.5l14,35c0.4,0.9,0.4,2,0,3l-8.8,22
					c-1.3,3.4-6.1,3.4-7.5,0L65.1,5.5z">
     </path>
    </g>
   </g>
  </g>
 </g>
</svg>